<svg xmlns="http://www.w3.org/2000/svg" viewBox="0 0 1600 900">
<defs><radialGradient id="bg" cx="50%" cy="45%" r="70%"><stop offset="0" stop-color="#fff9ee"/><stop offset=".55" stop-color="#ead8bb"/><stop offset="1" stop-color="#b98556"/></radialGradient><radialGradient id="earth" cx="45%" cy="35%" r="70%"><stop offset="0" stop-color="#f8edda"/><stop offset=".55" stop-color="#b88b58"/><stop offset="1" stop-color="#6f4b2d"/></radialGradient><filter id="glow"><feGaussianBlur stdDeviation="7" result="b"/><feMerge><feMergeNode in="b"/><feMergeNode in="SourceGraphic"/></feMerge></filter></defs>
<rect width="1600" height="900" fill="url(#bg)"/><g opacity=".24" stroke="#8c633e" stroke-width="2"><path d="M0 170H1600M0 340H1600M0 510H1600M0 680H1600"/><path d="M200 0V900M400 0V900M600 0V900M800 0V900M1000 0V900M1200 0V900M1400 0V900"/></g>
<circle cx="770" cy="450" r="310" fill="url(#earth)" stroke="#e3c98f" stroke-width="8"/>
<g fill="#f4e7cc" opacity=".92"><path d="M540 280c90-80 190-87 260-50l-35 70-80 30-45 75-78-34-42-54z"/><path d="M720 390l95-45 100 20 75 86-42 75-98-13-56 86-84-25-38-92z"/><path d="M1010 340l105-32 102 52 40 95-61 74-91-16-55-85z"/><path d="M555 530l92 28 66 98-30 110-94-35-55-93z"/></g>
<g fill="none" stroke="#d6a74e" stroke-width="7" stroke-linecap="round" filter="url(#glow)"><path d="M150 210Q530 60 770 450"/><path d="M770 450Q1050 120 1460 210"/><path d="M770 450Q1110 520 1480 690"/><path d="M770 450Q480 730 130 690"/><path d="M770 450Q450 260 240 390"/></g>
<g fill="#7b2438" stroke="#fff2d7" stroke-width="5" filter="url(#glow)"><circle cx="150" cy="210" r="14"/><circle cx="1460" cy="210" r="14"/><circle cx="1480" cy="690" r="14"/><circle cx="130" cy="690" r="14"/><circle cx="240" cy="390" r="14"/><circle cx="770" cy="450" r="18"/></g>
<g fill="#fff7e7" font-family="Montserrat,Arial" text-anchor="middle"><text x="800" y="820" font-size="42" font-weight="600" letter-spacing="8">GLOBAL OPERATIONS</text><text x="800" y="860" font-size="20" letter-spacing="4" fill="#6f4b2d">ONE NETWORK · REAL EXPERIENCE · TRUST ACROSS BORDERS</text></g>
</svg>